<?xml version="1.0" standalone="no"?>
<!DOCTYPE svg PUBLIC "-//W3C//DTD SVG 20010904//EN"
 "http://www.w3.org/TR/2001/REC-SVG-20010904/DTD/svg10.dtd">
<svg version="1.0" xmlns="http://www.w3.org/2000/svg"
 width="512.000000pt" height="512.000000pt" viewBox="0 0 512.000000 512.000000"
 preserveAspectRatio="xMidYMid meet">

<g transform="translate(0.000000,512.000000) scale(0.100000,-0.100000)"
fill="#70ae98" stroke="none">
<path d="M1725 4466 c-65 -20 -98 -42 -142 -89 -52 -56 -68 -87 -82 -159 -13
-60 -4 -146 20 -191 7 -12 228 -345 491 -739 263 -395 478 -722 478 -728 0 -6
-215 -333 -478 -728 -263 -394 -484 -727 -491 -739 -6 -13 -16 -48 -22 -78
-26 -139 53 -286 186 -347 48 -22 63 -23 318 -26 298 -4 333 1 421 59 43 29
106 119 615 883 544 816 568 854 580 916 12 68 4 147 -20 193 -7 12 -263 398
-570 858 -608 912 -582 878 -703 914 -66 20 -540 20 -601 1z m575 -221 c13
-11 266 -384 564 -830 515 -770 541 -812 541 -855 0 -43 -26 -85 -541 -855
-298 -445 -551 -819 -564 -830 -20 -19 -39 -20 -255 -23 -255 -3 -288 2 -320
52 -38 58 -41 53 495 856 479 717 505 757 505 800 0 43 -26 83 -505 800 -536
803 -533 798 -495 856 32 50 59 54 316 51 221 -2 238 -3 259 -22z"/>
</g>
</svg>
