<?xml version="1.0" encoding="iso-8859-1"?>
<!-- Generator: Adobe Illustrator 19.0.0, SVG Export Plug-In . SVG Version: 6.00 Build 0)  -->
<svg version="1.1" id="Layer_1" xmlns="http://www.w3.org/2000/svg" xmlns:xlink="http://www.w3.org/1999/xlink" x="0px" y="0px"
	 viewBox="0 0 511.999 511.999" style="enable-background:new 0 0 511.999 511.999;" xml:space="preserve">
<g>
	<g>
		<path style="fill:#fdcf76;" d="M205.362,460.514L51.513,306.665c-9.305-9.303-24.531-9.303-33.837,0.002
			c-9.306,9.305-9.306,24.528,0,33.834l153.848,153.848c9.306,9.307,24.532,9.307,33.838,0
			C214.665,485.044,214.665,469.821,205.362,460.514z"/>
		<polygon style="fill:#fdcf76;" points="51.513,306.665 205.362,460.514 435.339,230.537 425.82,221.017 291.009,86.204 
			281.491,76.687 		"/>
	</g>
	<path style="fill:#fff0ad;" d="M291.009,86.204L425.82,221.016c61.723-61.722,99.776-150.816,57.891-192.701
		C441.826-13.573,352.73,24.483,291.009,86.204z"/>
</g>
<g>
	<path style="fill:#fdcf76;" d="M491.256,20.771C477.472,6.988,459.153,0,436.799,0c-42.968,0-99.232,27.713-145.661,71.248
		l-2.104-2.104c-2.001-2-4.715-3.125-7.544-3.125c-2.829,0-5.542,1.124-7.544,3.125L50.318,292.772
		c-4.805-2.447-10.158-3.753-15.724-3.753c-9.258,0-17.945,3.587-24.461,10.101c-0.055,0.055-0.111,0.111-0.164,0.169
		c-6.412,6.496-9.939,15.115-9.939,24.296c0,9.258,3.588,17.946,10.104,24.461l153.847,153.847
		c6.515,6.518,15.204,10.106,24.464,10.106c9.258,0,17.945-3.588,24.461-10.106c6.515-6.515,10.104-15.203,10.104-24.461
		c-0.001-5.565-1.307-10.918-3.755-15.722l223.629-223.628c4.166-4.166,4.166-10.922,0-15.088l-2.104-2.103
		c28.875-30.817,51.579-66.859,62.939-100.225C518.039,78.605,513.612,43.128,491.256,20.771z M197.815,486.809
		c-2.484,2.485-5.812,3.852-9.37,3.852c-3.56,0-6.889-1.369-9.375-3.857L25.22,332.958c-2.485-2.486-3.854-5.814-3.854-9.374
		c0-3.558,1.369-6.887,3.854-9.372c0.034-0.035,0.069-0.07,0.106-0.106c2.473-2.42,5.759-3.75,9.269-3.75
		c3.561,0,6.891,1.369,9.375,3.852l153.847,153.852c2.486,2.485,3.856,5.813,3.856,9.372
		C201.672,480.992,200.303,484.321,197.815,486.809z M205.362,445.426L66.599,306.665l214.891-214.89l138.76,138.763
		L205.362,445.426z M425.687,205.795L306.223,86.331c42.5-39.741,92.878-64.994,130.576-64.994c16.486,0,29.733,4.886,39.368,14.521
		C511.504,71.196,478.143,149.495,425.687,205.795z"/>
	<path style="fill:#fff0ad;" d="M433.594,42.712c-15.031,0.832-30.899,6.69-37.021,9.171c-7.555,3.058-15.29,6.791-22.994,11.094
		c-5.142,2.874-6.983,9.374-4.11,14.517c1.955,3.497,5.583,5.467,9.323,5.467c1.76,0,3.547-0.437,5.194-1.357
		c6.93-3.872,13.858-7.217,20.594-9.943c4.007-1.623,18.027-6.97,30.194-7.644c5.884-0.326,10.388-5.359,10.063-11.243
		C444.51,46.891,439.479,42.392,433.594,42.712z"/>
	<circle style="fill:#fff0ad;" cx="355.897" cy="89.713" r="10.669"/>
	<path style="fill:#fdcf76;" d="M236.311,354.138l-38.494,38.494c-4.165,4.166-4.165,10.922,0,15.089
		c2.084,2.084,4.815,3.125,7.545,3.125s5.46-1.041,7.543-3.125l38.494-38.494c4.166-4.166,4.166-10.922,0-15.089
		C247.232,349.972,240.477,349.972,236.311,354.138z"/>
	<path style="fill:#fdcf76;" d="M258.111,332.331l-0.178,0.18c-4.143,4.191-4.103,10.945,0.087,15.088
		c2.079,2.055,4.789,3.081,7.499,3.081c2.751,0,5.502-1.057,7.588-3.169l0.179-0.18c4.142-4.191,4.102-10.945-0.089-15.088
		S262.252,328.141,258.111,332.331z"/>
</g>
<g>
</g>
<g>
</g>
<g>
</g>
<g>
</g>
<g>
</g>
<g>
</g>
<g>
</g>
<g>
</g>
<g>
</g>
<g>
</g>
<g>
</g>
<g>
</g>
<g>
</g>
<g>
</g>
<g>
</g>
</svg>
