<svg id="visual" viewBox="0 0 675 900" width="675" height="900" xmlns="http://www.w3.org/2000/svg" xmlns:xlink="http://www.w3.org/1999/xlink" version="1.1"><path d="M0 214L16 214.3C32 214.7 64 215.3 96.2 204.8C128.3 194.3 160.7 172.7 192.8 194.5C225 216.3 257 281.7 289.2 303.5C321.3 325.3 353.7 303.7 385.8 277.8C418 252 450 222 482.2 240.5C514.3 259 546.7 326 578.8 342.5C611 359 643 325 659 308L675 291L675 901L659 901C643 901 611 901 578.8 901C546.7 901 514.3 901 482.2 901C450 901 418 901 385.8 901C353.7 901 321.3 901 289.2 901C257 901 225 901 192.8 901C160.7 901 128.3 901 96.2 901C64 901 32 901 16 901L0 901Z" fill="#fff0ad"></path><path d="M0 417L16 418.7C32 420.3 64 423.7 96.2 408C128.3 392.3 160.7 357.7 192.8 323.7C225 289.7 257 256.3 289.2 241.7C321.3 227 353.7 231 385.8 241.8C418 252.7 450 270.3 482.2 298.5C514.3 326.7 546.7 365.3 578.8 358.3C611 351.3 643 298.7 659 272.3L675 246L675 901L659 901C643 901 611 901 578.8 901C546.7 901 514.3 901 482.2 901C450 901 418 901 385.8 901C353.7 901 321.3 901 289.2 901C257 901 225 901 192.8 901C160.7 901 128.3 901 96.2 901C64 901 32 901 16 901L0 901Z" fill="#edeaa8"></path><path d="M0 361L16 366.8C32 372.7 64 384.3 96.2 370C128.3 355.7 160.7 315.3 192.8 307.7C225 300 257 325 289.2 338.7C321.3 352.3 353.7 354.7 385.8 342.7C418 330.7 450 304.3 482.2 307.5C514.3 310.7 546.7 343.3 578.8 356.2C611 369 643 362 659 358.5L675 355L675 901L659 901C643 901 611 901 578.8 901C546.7 901 514.3 901 482.2 901C450 901 418 901 385.8 901C353.7 901 321.3 901 289.2 901C257 901 225 901 192.8 901C160.7 901 128.3 901 96.2 901C64 901 32 901 16 901L0 901Z" fill="#dbe3a4"></path><path d="M0 428L16 425.8C32 423.7 64 419.3 96.2 422.8C128.3 426.3 160.7 437.7 192.8 426.5C225 415.3 257 381.7 289.2 379.2C321.3 376.7 353.7 405.3 385.8 410.8C418 416.3 450 398.7 482.2 415.3C514.3 432 546.7 483 578.8 486.7C611 490.3 643 446.7 659 424.8L675 403L675 901L659 901C643 901 611 901 578.8 901C546.7 901 514.3 901 482.2 901C450 901 418 901 385.8 901C353.7 901 321.3 901 289.2 901C257 901 225 901 192.8 901C160.7 901 128.3 901 96.2 901C64 901 32 901 16 901L0 901Z" fill="#c9dda1"></path><path d="M0 528L16 536.5C32 545 64 562 96.2 551.3C128.3 540.7 160.7 502.3 192.8 484.8C225 467.3 257 470.7 289.2 468.8C321.3 467 353.7 460 385.8 469.2C418 478.3 450 503.7 482.2 498.2C514.3 492.7 546.7 456.3 578.8 452.7C611 449 643 478 659 492.5L675 507L675 901L659 901C643 901 611 901 578.8 901C546.7 901 514.3 901 482.2 901C450 901 418 901 385.8 901C353.7 901 321.3 901 289.2 901C257 901 225 901 192.8 901C160.7 901 128.3 901 96.2 901C64 901 32 901 16 901L0 901Z" fill="#b8d69f"></path><path d="M0 591L16 581.3C32 571.7 64 552.3 96.2 561.8C128.3 571.3 160.7 609.7 192.8 612.5C225 615.3 257 582.7 289.2 561.8C321.3 541 353.7 532 385.8 543C418 554 450 585 482.2 588.8C514.3 592.7 546.7 569.3 578.8 560.8C611 552.3 643 558.7 659 561.8L675 565L675 901L659 901C643 901 611 901 578.8 901C546.7 901 514.3 901 482.2 901C450 901 418 901 385.8 901C353.7 901 321.3 901 289.2 901C257 901 225 901 192.8 901C160.7 901 128.3 901 96.2 901C64 901 32 901 16 901L0 901Z" fill="#a8ce9d"></path><path d="M0 665L16 654.8C32 644.7 64 624.3 96.2 626.2C128.3 628 160.7 652 192.8 667.8C225 683.7 257 691.3 289.2 688C321.3 684.7 353.7 670.3 385.8 669.8C418 669.3 450 682.7 482.2 687.5C514.3 692.3 546.7 688.7 578.8 687.8C611 687 643 689 659 690L675 691L675 901L659 901C643 901 611 901 578.8 901C546.7 901 514.3 901 482.2 901C450 901 418 901 385.8 901C353.7 901 321.3 901 289.2 901C257 901 225 901 192.8 901C160.7 901 128.3 901 96.2 901C64 901 32 901 16 901L0 901Z" fill="#98c79c"></path><path d="M0 651L16 654.3C32 657.7 64 664.3 96.2 669.3C128.3 674.3 160.7 677.7 192.8 684.7C225 691.7 257 702.3 289.2 697C321.3 691.7 353.7 670.3 385.8 666.3C418 662.3 450 675.7 482.2 682.7C514.3 689.7 546.7 690.3 578.8 692C611 693.7 643 696.3 659 697.7L675 699L675 901L659 901C643 901 611 901 578.8 901C546.7 901 514.3 901 482.2 901C450 901 418 901 385.8 901C353.7 901 321.3 901 289.2 901C257 901 225 901 192.8 901C160.7 901 128.3 901 96.2 901C64 901 32 901 16 901L0 901Z" fill="#8abf9b"></path><path d="M0 708L16 714.7C32 721.3 64 734.7 96.2 741C128.3 747.3 160.7 746.7 192.8 755.8C225 765 257 784 289.2 779.5C321.3 775 353.7 747 385.8 735.3C418 723.7 450 728.3 482.2 731C514.3 733.7 546.7 734.3 578.8 737.5C611 740.7 643 746.3 659 749.2L675 752L675 901L659 901C643 901 611 901 578.8 901C546.7 901 514.3 901 482.2 901C450 901 418 901 385.8 901C353.7 901 321.3 901 289.2 901C257 901 225 901 192.8 901C160.7 901 128.3 901 96.2 901C64 901 32 901 16 901L0 901Z" fill="#7cb69a"></path><path d="M0 795L16 804.8C32 814.7 64 834.3 96.2 841.8C128.3 849.3 160.7 844.7 192.8 840.3C225 836 257 832 289.2 822.7C321.3 813.3 353.7 798.7 385.8 797.7C418 796.7 450 809.3 482.2 815.8C514.3 822.3 546.7 822.7 578.8 828.7C611 834.7 643 846.3 659 852.2L675 858L675 901L659 901C643 901 611 901 578.8 901C546.7 901 514.3 901 482.2 901C450 901 418 901 385.8 901C353.7 901 321.3 901 289.2 901C257 901 225 901 192.8 901C160.7 901 128.3 901 96.2 901C64 901 32 901 16 901L0 901Z" fill="#70ae98"></path></svg>