<svg id="visual" viewBox="0 0 900 600" width="900" height="600" xmlns="http://www.w3.org/2000/svg" xmlns:xlink="http://www.w3.org/1999/xlink" version="1.1"><g stroke-width="1" stroke-linejoin="bevel"><path d="M468 336L400 331L461 362Z" fill="#ffd3a9" stroke="#ffd3a9"></path><path d="M400 331L431 437L461 362Z" fill="#fff0ad" stroke="#fff0ad"></path><path d="M301 218L304 317L400 331Z" fill="#ffe1a9" stroke="#ffe1a9"></path><path d="M400 331L369 480L431 437Z" fill="#ffe1a9" stroke="#ffe1a9"></path><path d="M279 406L369 480L400 331Z" fill="#9799ba" stroke="#9799ba"></path><path d="M431 437L573 432L461 362Z" fill="#ffd3a9" stroke="#ffd3a9"></path><path d="M461 362L573 432L468 336Z" fill="#9799ba" stroke="#9799ba"></path><path d="M506 499L573 432L431 437Z" fill="#ac9dc0" stroke="#ac9dc0"></path><path d="M304 317L279 406L400 331Z" fill="#9799ba" stroke="#9799ba"></path><path d="M463 160L400 331L468 336Z" fill="#f7b3ba" stroke="#f7b3ba"></path><path d="M463 160L369 185L400 331Z" fill="#c1a2c3" stroke="#c1a2c3"></path><path d="M369 480L506 499L431 437Z" fill="#9799ba" stroke="#9799ba"></path><path d="M573 432L606 303L468 336Z" fill="#ffe1a9" stroke="#ffe1a9"></path><path d="M606 303L569 225L468 336Z" fill="#ac9dc0" stroke="#ac9dc0"></path><path d="M369 185L301 218L400 331Z" fill="#ffc7ad" stroke="#ffc7ad"></path><path d="M304 317L210 299L279 406Z" fill="#9799ba" stroke="#9799ba"></path><path d="M569 225L463 160L468 336Z" fill="#ffd3a9" stroke="#ffd3a9"></path><path d="M279 406L267 485L369 480Z" fill="#fff0ad" stroke="#fff0ad"></path><path d="M369 480L394 600L506 499Z" fill="#ffd3a9" stroke="#ffd3a9"></path><path d="M198 413L267 485L279 406Z" fill="#c1a2c3" stroke="#c1a2c3"></path><path d="M301 218L210 299L304 317Z" fill="#e8acbf" stroke="#e8acbf"></path><path d="M504 113L426 105L463 160Z" fill="#ffd3a9" stroke="#ffd3a9"></path><path d="M463 160L426 105L369 185Z" fill="#9799ba" stroke="#9799ba"></path><path d="M298 94L215 197L301 218Z" fill="#ffd3a9" stroke="#ffd3a9"></path><path d="M301 218L215 197L210 299Z" fill="#c1a2c3" stroke="#c1a2c3"></path><path d="M569 225L504 113L463 160Z" fill="#fff0ad" stroke="#fff0ad"></path><path d="M506 499L608 509L573 432Z" fill="#fff0ad" stroke="#fff0ad"></path><path d="M736 427L727 309L606 303Z" fill="#ac9dc0" stroke="#ac9dc0"></path><path d="M508 600L608 509L506 499Z" fill="#ffc7ad" stroke="#ffc7ad"></path><path d="M210 299L198 413L279 406Z" fill="#c1a2c3" stroke="#c1a2c3"></path><path d="M298 94L301 218L369 185Z" fill="#ffbcb4" stroke="#ffbcb4"></path><path d="M66 326L88 431L198 413Z" fill="#ffd3a9" stroke="#ffd3a9"></path><path d="M330 600L394 600L369 480Z" fill="#ac9dc0" stroke="#ac9dc0"></path><path d="M394 600L508 600L506 499Z" fill="#e8acbf" stroke="#e8acbf"></path><path d="M267 485L330 600L369 480Z" fill="#ffd3a9" stroke="#ffd3a9"></path><path d="M208 539L330 600L267 485Z" fill="#f7b3ba" stroke="#f7b3ba"></path><path d="M426 105L298 94L369 185Z" fill="#ac9dc0" stroke="#ac9dc0"></path><path d="M697 85L564 90L569 225Z" fill="#ac9dc0" stroke="#ac9dc0"></path><path d="M569 225L564 90L504 113Z" fill="#ffd3a9" stroke="#ffd3a9"></path><path d="M476 0L433 0L426 105Z" fill="#ffd3a9" stroke="#ffd3a9"></path><path d="M426 105L433 0L298 94Z" fill="#c1a2c3" stroke="#c1a2c3"></path><path d="M619 600L664 523L608 509Z" fill="#c1a2c3" stroke="#c1a2c3"></path><path d="M608 509L664 523L573 432Z" fill="#9799ba" stroke="#9799ba"></path><path d="M606 303L713 222L569 225Z" fill="#ffc7ad" stroke="#ffc7ad"></path><path d="M736 427L606 303L573 432Z" fill="#ffc7ad" stroke="#ffc7ad"></path><path d="M198 413L208 539L267 485Z" fill="#d5a6c3" stroke="#d5a6c3"></path><path d="M727 309L713 222L606 303Z" fill="#f7b3ba" stroke="#f7b3ba"></path><path d="M664 523L736 427L573 432Z" fill="#9799ba" stroke="#9799ba"></path><path d="M508 600L619 600L608 509Z" fill="#ffbcb4" stroke="#ffbcb4"></path><path d="M664 523L786 498L736 427Z" fill="#f7b3ba" stroke="#f7b3ba"></path><path d="M476 0L426 105L504 113Z" fill="#fff0ad" stroke="#fff0ad"></path><path d="M564 90L476 0L504 113Z" fill="#f7b3ba" stroke="#f7b3ba"></path><path d="M624 0L476 0L564 90Z" fill="#9799ba" stroke="#9799ba"></path><path d="M619 600L664 600L664 523Z" fill="#fff0ad" stroke="#fff0ad"></path><path d="M269 0L227 61L298 94Z" fill="#9799ba" stroke="#9799ba"></path><path d="M298 94L227 61L215 197Z" fill="#d5a6c3" stroke="#d5a6c3"></path><path d="M727 309L760 219L713 222Z" fill="#ffbcb4" stroke="#ffbcb4"></path><path d="M713 222L697 85L569 225Z" fill="#e8acbf" stroke="#e8acbf"></path><path d="M786 317L760 219L727 309Z" fill="#ffc7ad" stroke="#ffc7ad"></path><path d="M786 498L780 406L736 427Z" fill="#ffe1a9" stroke="#ffe1a9"></path><path d="M736 427L780 406L727 309Z" fill="#ffbcb4" stroke="#ffbcb4"></path><path d="M780 406L786 317L727 309Z" fill="#c1a2c3" stroke="#c1a2c3"></path><path d="M66 326L198 413L210 299Z" fill="#ffbcb4" stroke="#ffbcb4"></path><path d="M198 413L91 501L208 539Z" fill="#ffc7ad" stroke="#ffc7ad"></path><path d="M107 186L210 299L215 197Z" fill="#9799ba" stroke="#9799ba"></path><path d="M227 61L107 186L215 197Z" fill="#ffe1a9" stroke="#ffe1a9"></path><path d="M117 600L178 600L208 539Z" fill="#fff0ad" stroke="#fff0ad"></path><path d="M208 539L178 600L330 600Z" fill="#9799ba" stroke="#9799ba"></path><path d="M760 219L697 85L713 222Z" fill="#fff0ad" stroke="#fff0ad"></path><path d="M107 186L66 326L210 299Z" fill="#ffe1a9" stroke="#ffe1a9"></path><path d="M0 536L91 501L88 431Z" fill="#ffbcb4" stroke="#ffbcb4"></path><path d="M88 431L91 501L198 413Z" fill="#e8acbf" stroke="#e8acbf"></path><path d="M433 0L269 0L298 94Z" fill="#ac9dc0" stroke="#ac9dc0"></path><path d="M227 61L80 74L107 186Z" fill="#f7b3ba" stroke="#f7b3ba"></path><path d="M664 600L786 498L664 523Z" fill="#ffd3a9" stroke="#ffd3a9"></path><path d="M900 408L900 308L786 317Z" fill="#d5a6c3" stroke="#d5a6c3"></path><path d="M697 85L624 0L564 90Z" fill="#ffbcb4" stroke="#ffbcb4"></path><path d="M269 0L226 0L227 61Z" fill="#f7b3ba" stroke="#f7b3ba"></path><path d="M91 501L117 600L208 539Z" fill="#9799ba" stroke="#9799ba"></path><path d="M768 0L698 0L697 85Z" fill="#d5a6c3" stroke="#d5a6c3"></path><path d="M697 85L698 0L624 0Z" fill="#ac9dc0" stroke="#ac9dc0"></path><path d="M0 208L0 336L66 326Z" fill="#e8acbf" stroke="#e8acbf"></path><path d="M66 326L0 394L88 431Z" fill="#d5a6c3" stroke="#d5a6c3"></path><path d="M91 501L0 536L117 600Z" fill="#ffd3a9" stroke="#ffd3a9"></path><path d="M0 208L66 326L107 186Z" fill="#c1a2c3" stroke="#c1a2c3"></path><path d="M900 178L808 117L760 219Z" fill="#ffbcb4" stroke="#ffbcb4"></path><path d="M760 219L808 117L697 85Z" fill="#ac9dc0" stroke="#ac9dc0"></path><path d="M900 308L760 219L786 317Z" fill="#ac9dc0" stroke="#ac9dc0"></path><path d="M0 336L0 394L66 326Z" fill="#e8acbf" stroke="#e8acbf"></path><path d="M226 0L80 74L227 61Z" fill="#f7b3ba" stroke="#f7b3ba"></path><path d="M0 97L0 208L107 186Z" fill="#ffe1a9" stroke="#ffe1a9"></path><path d="M664 600L809 600L786 498Z" fill="#ffbcb4" stroke="#ffbcb4"></path><path d="M900 408L786 317L780 406Z" fill="#ac9dc0" stroke="#ac9dc0"></path><path d="M900 408L780 406L786 498Z" fill="#fff0ad" stroke="#fff0ad"></path><path d="M900 500L900 408L786 498Z" fill="#f7b3ba" stroke="#f7b3ba"></path><path d="M0 394L0 536L88 431Z" fill="#c1a2c3" stroke="#c1a2c3"></path><path d="M900 0L768 0L808 117Z" fill="#ffc7ad" stroke="#ffc7ad"></path><path d="M808 117L768 0L697 85Z" fill="#ffd3a9" stroke="#ffd3a9"></path><path d="M809 600L900 500L786 498Z" fill="#ffd3a9" stroke="#ffd3a9"></path><path d="M900 308L900 178L760 219Z" fill="#ffbcb4" stroke="#ffbcb4"></path><path d="M0 0L0 97L80 74Z" fill="#ffe1a9" stroke="#ffe1a9"></path><path d="M80 74L0 97L107 186Z" fill="#ffbcb4" stroke="#ffbcb4"></path><path d="M226 0L71 0L80 74Z" fill="#fff0ad" stroke="#fff0ad"></path><path d="M0 536L0 600L117 600Z" fill="#fff0ad" stroke="#fff0ad"></path><path d="M900 178L900 90L808 117Z" fill="#d5a6c3" stroke="#d5a6c3"></path><path d="M809 600L900 600L900 500Z" fill="#e8acbf" stroke="#e8acbf"></path><path d="M71 0L0 0L80 74Z" fill="#9799ba" stroke="#9799ba"></path><path d="M900 90L900 0L808 117Z" fill="#ffe1a9" stroke="#ffe1a9"></path></g></svg>