<svg id="visual" viewBox="0 0 900 600" width="900" height="600" xmlns="http://www.w3.org/2000/svg" xmlns:xlink="http://www.w3.org/1999/xlink" version="1.1"><rect width="900" height="600" fill="#bc85a3"></rect><g><g transform="translate(671 274)"><path d="M0 -112L112 0L0 112L-112 0Z" fill="none" stroke="#99d8ff" stroke-width="3"></path></g><g transform="translate(803 516)"><path d="M0 -93L93 0L0 93L-93 0Z" fill="none" stroke="#99d8ff" stroke-width="3"></path></g><g transform="translate(136 433)"><path d="M0 -111L111 0L0 111L-111 0Z" fill="none" stroke="#99d8ff" stroke-width="3"></path></g><g transform="translate(103 93)"><path d="M0 -82L82 0L0 82L-82 0Z" fill="none" stroke="#99d8ff" stroke-width="3"></path></g><g transform="translate(891 191)"><path d="M0 -109L109 0L0 109L-109 0Z" fill="none" stroke="#99d8ff" stroke-width="3"></path></g><g transform="translate(334 247)"><path d="M0 -83L83 0L0 83L-83 0Z" fill="none" stroke="#99d8ff" stroke-width="3"></path></g><g transform="translate(487 490)"><path d="M0 -73L73 0L0 73L-73 0Z" fill="none" stroke="#99d8ff" stroke-width="3"></path></g><g transform="translate(495 71)"><path d="M0 -62L62 0L0 62L-62 0Z" fill="none" stroke="#99d8ff" stroke-width="3"></path></g></g></svg>