<svg id="visual" viewBox="0 0 540 960" width="540" height="960" xmlns="http://www.w3.org/2000/svg" xmlns:xlink="http://www.w3.org/1999/xlink" version="1.1"><path d="M0 404L12.8 392.8C25.7 381.7 51.3 359.3 77 351.3C102.7 343.3 128.3 349.7 154 362.5C179.7 375.3 205.3 394.7 231.2 407.5C257 420.3 283 426.7 308.8 418.7C334.7 410.7 360.3 388.3 386 369.2C411.7 350 437.3 334 463 324.3C488.7 314.7 514.3 311.3 527.2 309.7L540 308L540 0L527.2 0C514.3 0 488.7 0 463 0C437.3 0 411.7 0 386 0C360.3 0 334.7 0 308.8 0C283 0 257 0 231.2 0C205.3 0 179.7 0 154 0C128.3 0 102.7 0 77 0C51.3 0 25.7 0 12.8 0L0 0Z" fill="#fff0ad"></path><path d="M0 644L12.8 628C25.7 612 51.3 580 77 570.5C102.7 561 128.3 574 154 594.8C179.7 615.7 205.3 644.3 231.2 660.3C257 676.3 283 679.7 308.8 674.8C334.7 670 360.3 657 386 642.5C411.7 628 437.3 612 463 592.8C488.7 573.7 514.3 551.3 527.2 540.2L540 529L540 306L527.2 307.7C514.3 309.3 488.7 312.7 463 322.3C437.3 332 411.7 348 386 367.2C360.3 386.3 334.7 408.7 308.8 416.7C283 424.7 257 418.3 231.2 405.5C205.3 392.7 179.7 373.3 154 360.5C128.3 347.7 102.7 341.3 77 349.3C51.3 357.3 25.7 379.7 12.8 390.8L0 402Z" fill="#b0d29e"></path><path d="M0 961L12.8 961C25.7 961 51.3 961 77 961C102.7 961 128.3 961 154 961C179.7 961 205.3 961 231.2 961C257 961 283 961 308.8 961C334.7 961 360.3 961 386 961C411.7 961 437.3 961 463 961C488.7 961 514.3 961 527.2 961L540 961L540 527L527.2 538.2C514.3 549.3 488.7 571.7 463 590.8C437.3 610 411.7 626 386 640.5C360.3 655 334.7 668 308.8 672.8C283 677.7 257 674.3 231.2 658.3C205.3 642.3 179.7 613.7 154 592.8C128.3 572 102.7 559 77 568.5C51.3 578 25.7 610 12.8 626L0 642Z" fill="#70ae98"></path></svg>