<svg id="visual" viewBox="0 0 900 600" width="900" height="600" xmlns="http://www.w3.org/2000/svg" xmlns:xlink="http://www.w3.org/1999/xlink" version="1.1"><path d="M0 574L21.5 573C43 572 86 570 128.8 569.8C171.7 569.7 214.3 571.3 257.2 573.8C300 576.3 343 579.7 385.8 581.3C428.7 583 471.3 583 514.2 577.8C557 572.7 600 562.3 642.8 560.5C685.7 558.7 728.3 565.3 771.2 569.5C814 573.7 857 575.3 878.5 576.2L900 577L900 601L878.5 601C857 601 814 601 771.2 601C728.3 601 685.7 601 642.8 601C600 601 557 601 514.2 601C471.3 601 428.7 601 385.8 601C343 601 300 601 257.2 601C214.3 601 171.7 601 128.8 601C86 601 43 601 21.5 601L0 601Z" fill="#70ae98" stroke-linecap="round" stroke-linejoin="miter"></path></svg>